<svg id="Calque_1" data-name="Calque 1" xmlns="http://www.w3.org/2000/svg" viewBox="0 0 24.17 15.24"><defs><style>.cls-1{fill:#010101;}</style></defs><g id="g3003"><path id="path3005" class="cls-1" d="M24.59,8A1.88,1.88,0,0,1,24,9.43l-10.1,10.1a1.93,1.93,0,0,1-1.41.59,1.87,1.87,0,0,1-1.4-.59L1,9.43A1.86,1.86,0,0,1,.41,8,1.93,1.93,0,0,1,1,6.62L2.15,5.46a2,2,0,0,1,1.41-.58A1.88,1.88,0,0,1,5,5.46L12.5,13,20,5.46a1.88,1.88,0,0,1,1.4-.58,2,2,0,0,1,1.41.58L24,6.62A2,2,0,0,1,24.59,8Z" transform="translate(-0.41 -4.88)"/></g></svg>